{
  "accessors": [
    {
      "bufferView": 2,
      "componentType": 5126,
      "count": 5240,
      "max": [
        0.6040869951248169,
        0.20456546545028687,
        0.7557235956192017
      ],
      "min": [
        -0.09740939736366272,
        -0.5393757820129395,
        -0.198577880859375
      ],
      "type": "VEC3"
    },
    {
      "bufferView": 2,
      "byteOffset": 62880,
      "componentType": 5126,
      "count": 5240,
      "max": [
        0.9998714923858643,
        0.9993630051612854,
        1.0
      ],
      "min": [
        -0.9997175335884094,
        -0.9995020031929016,
        -1.0
      ],
      "type": "VEC3"
    },
    {
      "bufferView": 1,
      "componentType": 5126,
      "count": 5240,
      "max": [
        1.0168616771697998,
        1.419537901878357
      ],
      "min": [
        0.0,
        -0.016860593110322952
      ],
      "type": "VEC2"
    },
    {
      "bufferView": 0,
      "componentType": 5125,
      "count": 20262,
      "type": "SCALAR"
    },
    {
      "bufferView": 2,
      "byteOffset": 125760,
      "componentType": 5126,
      "count": 3634,
      "max": [
        0.5900968313217163,
        0.20092922449111938,
        0.4662153720855713
      ],
      "min": [
        -0.09092691540718079,
        -0.49164557456970215,
        -0.18199384212493896
      ],
      "type": "VEC3"
    },
    {
      "bufferView": 2,
      "byteOffset": 169368,
      "componentType": 5126,
      "count": 3634,
      "max": [
        0.9997193217277527,
        0.9993206858634949,
        0.9729824662208557
      ],
      "min": [
        -0.9996724128723145,
        -0.9999186396598816,
        -0.9694074988365173
      ],
      "type": "VEC3"
    },
    {
      "bufferView": 1,
      "byteOffset": 41920,
      "componentType": 5126,
      "count": 3634,
      "max": [
        0.9750869274139404,
        1.0000001192092896
      ],
      "min": [
        0.125,
        0.0
      ],
      "type": "VEC2"
    },
    {
      "bufferView": 0,
      "byteOffset": 81048,
      "componentType": 5125,
      "count": 16752,
      "type": "SCALAR"
    },
    {
      "bufferView": 2,
      "byteOffset": 212976,
      "componentType": 5126,
      "count": 1488,
      "max": [
        0.7599756717681885,
        0.20008480548858643,
        1.260488748550415
      ],
      "min": [
        -0.11419576406478882,
        -0.601564347743988,
        0.41172271966934204
      ],
      "type": "VEC3"
    },
    {
      "bufferView": 2,
      "byteOffset": 230832,
      "componentType": 5126,
      "count": 1488,
      "max": [
        0.9993133544921875,
        0.9935624003410339,
        0.9999982118606567
      ],
      "min": [
        -0.9786038994789124,
        -0.9992618560791016,
        -0.9999997615814209
      ],
      "type": "VEC3"
    },
    {
      "bufferView": 1,
      "byteOffset": 70992,
      "componentType": 5126,
      "count": 1488,
      "max": [
        1.4497098922729492,
        1.9088835716247559
      ],
      "min": [
        -0.6434838175773621,
        -0.5160087943077087
      ],
      "type": "VEC2"
    },
    {
      "bufferView": 0,
      "byteOffset": 148056,
      "componentType": 5125,
      "count": 7296,
      "type": "SCALAR"
    }
  ],
  "asset": {
    "extras": {
      "author": "paolodl (https://sketchfab.com/paolodl)",
      "license": "CC-BY-4.0 (http://creativecommons.org/licenses/by/4.0/)",
      "source": "https://sketchfab.com/3d-models/ergonomic-office-chair-11161117c2c142bd8307d2c3975ee730",
      "title": "Ergonomic office chair"
    },
    "generator": "Sketchfab-15.53.0",
    "version": "2.0"
  },
  "bufferViews": [
    {
      "buffer": 0,
      "byteLength": 177240,
      "name": "floatBufferViews",
      "target": 34963
    },
    {
      "buffer": 0,
      "byteLength": 82896,
      "byteOffset": 177240,
      "byteStride": 8,
      "name": "floatBufferViews",
      "target": 34962
    },
    {
      "buffer": 0,
      "byteLength": 248688,
      "byteOffset": 260136,
      "byteStride": 12,
      "name": "floatBufferViews",
      "target": 34962
    }
  ],
  "buffers": [
    {
      "byteLength": 508824,
      "uri": "scene.bin"
    }
  ],
  "images": [
    {
      "uri": "textures/material_baseColor.jpeg"
    }
  ],
  "materials": [
    {
      "doubleSided": true,
      "name": "speaker",
      "pbrMetallicRoughness": {
        "baseColorFactor": [
          0.0194489,
          0.0194489,
          0.0194489,
          1.0
        ],
        "metallicFactor": 0.5,
        "roughnessFactor": 0.9956510937512404
      }
    },
    {
      "doubleSided": true,
      "name": "Metal",
      "pbrMetallicRoughness": {
        "baseColorFactor": [
          0.353396,
          0.353396,
          0.353396,
          1.0
        ],
        "roughnessFactor": 0.0
      }
    },
    {
      "doubleSided": true,
      "name": "material",
      "pbrMetallicRoughness": {
        "baseColorTexture": {
          "index": 0
        },
        "metallicFactor": 0.0,
        "roughnessFactor": 0.8211145618000169
      }
    }
  ],
  "meshes": [
    {
      "name": "red_digita_chair_speaker_0",
      "primitives": [
        {
          "attributes": {
            "NORMAL": 1,
            "POSITION": 0,
            "TEXCOORD_0": 2
          },
          "indices": 3,
          "material": 0,
          "mode": 4
        }
      ]
    },
    {
      "name": "red_digita_chair_Metal_0",
      "primitives": [
        {
          "attributes": {
            "NORMAL": 5,
            "POSITION": 4,
            "TEXCOORD_0": 6
          },
          "indices": 7,
          "material": 1,
          "mode": 4
        }
      ]
    },
    {
      "name": "red_digita_chair_red_0",
      "primitives": [
        {
          "attributes": {
            "NORMAL": 9,
            "POSITION": 8,
            "TEXCOORD_0": 10
          },
          "indices": 11,
          "material": 2,
          "mode": 4
        }
      ]
    }
  ],
  "nodes": [
    {
      "children": [
        1
      ],
      "matrix": [
        1.0,
        0.0,
        0.0,
        0.0,
        0.0,
        2.220446049250313e-16,
        -1.0,
        0.0,
        0.0,
        1.0,
        2.220446049250313e-16,
        0.0,
        0.0,
        0.0,
        0.0,
        1.0
      ],
      "name": "Sketchfab_model"
    },
    {
      "children": [
        2
      ],
      "matrix": [
        0.009999999776482582,
        0.0,
        0.0,
        0.0,
        0.0,
        0.0,
        0.009999999776482582,
        0.0,
        0.0,
        -0.009999999776482582,
        0.0,
        0.0,
        0.0,
        0.0,
        0.0,
        1.0
      ],
      "name": "2e88dbcb062f44f0b4fc7bb963c1b080.fbx"
    },
    {
      "children": [
        3
      ],
      "name": "RootNode"
    },
    {
      "children": [
        4,
        5,
        6
      ],
      "matrix": [
        100.0,
        0.0,
        0.0,
        0.0,
        0.0,
        -1.629206793918314e-05,
        -99.99999999999868,
        0.0,
        0.0,
        93.14630126953001,
        -1.517545868566824e-05,
        0.0,
        0.0,
        3.542027235031128,
        0.0,
        1.0
      ],
      "name": "red_digita_chair"
    },
    {
      "mesh": 0,
      "name": "red_digita_chair_speaker_0"
    },
    {
      "mesh": 1,
      "name": "red_digita_chair_Metal_0"
    },
    {
      "mesh": 2,
      "name": "red_digita_chair_red_0"
    }
  ],
  "samplers": [
    {
      "magFilter": 9729,
      "minFilter": 9987,
      "wrapS": 10497,
      "wrapT": 10497
    }
  ],
  "scene": 0,
  "scenes": [
    {
      "name": "Sketchfab_Scene",
      "nodes": [
        0
      ]
    }
  ],
  "textures": [
    {
      "sampler": 0,
      "source": 0
    }
  ]
}
